<?xml version="1.0" encoding="utf-8"?>
<!-- Generator: Adobe Illustrator 19.1.0, SVG Export Plug-In . SVG Version: 6.00 Build 0)  -->
<svg version="1.1" id="Layer_1" xmlns="http://www.w3.org/2000/svg" xmlns:xlink="http://www.w3.org/1999/xlink" x="0px" y="0px"
	 viewBox="0 0 612 612" style="enable-background:new 0 0 612 612;" xml:space="preserve">
<style type="text/css">
	.st0{fill:#FF2400;}
</style>
<g>
	<path class="st0" d="M566.3,421.7l-51.1-51.1c32.7-20,54.7-56,54.7-97.1c0-62.8-51.1-113.9-113.9-113.9H350.1c-0.1,0-0.2,0-0.3,0
		c-0.7,0-1.5,0.1-2.2,0.2c-0.3,0.1-0.7,0.1-1,0.2c-0.7,0.1-1.3,0.4-2,0.6c-0.4,0.1-0.7,0.2-1.1,0.4c-0.6,0.2-1.1,0.6-1.6,0.9
		c-0.4,0.2-0.8,0.4-1.1,0.7c-0.1,0.1-0.3,0.2-0.4,0.3c-0.4,0.3-0.6,0.6-1,0.9c-0.3,0.3-0.7,0.6-1,0.9c-0.4,0.5-0.8,0.9-1.2,1.4
		c-0.3,0.4-0.5,0.7-0.8,1.1c-0.3,0.5-0.6,1-0.9,1.6c-0.2,0.4-0.4,0.8-0.6,1.3c-0.2,0.5-0.4,1.1-0.5,1.6c-0.1,0.5-0.3,0.9-0.3,1.4
		c-0.1,0.6-0.1,1.2-0.2,1.8c0,0.3-0.1,0.7-0.1,1c0,0.1,0,0.3,0,0.4c0,0.6,0.1,1.2,0.2,1.8c0.1,0.5,0.1,1,0.2,1.5
		c0.1,0.5,0.3,0.9,0.4,1.4c0.2,0.6,0.4,1.1,0.6,1.7c0.2,0.4,0.4,0.7,0.6,1.1c0.3,0.6,0.7,1.2,1.1,1.7c0.1,0.1,0.1,0.2,0.2,0.3
		c19.2,25.5,29.3,55.9,29.3,87.9c0,80.7-65.7,146.4-146.4,146.4S73.5,354.2,73.5,273.5c0-5.5,0.4-10.9,1-16.3h32.8
		c-0.8,5.4-1.2,10.8-1.2,16.3c0,62.8,51.1,113.9,113.9,113.9s113.9-51.1,113.9-113.9s-51.1-113.9-113.9-113.9H93
		c-9,0-16.3,7.3-16.3,16.3S84,192.1,93,192.1h126.9c44.9,0,81.3,36.5,81.3,81.3s-36.5,81.3-81.3,81.3s-81.3-36.5-81.3-81.3
		c0-5.5,0.6-10.9,1.7-16.3H174c-1.8,5.1-2.8,10.6-2.8,16.3c0,26.9,21.9,48.8,48.8,48.8s48.8-21.9,48.8-48.8
		c0-26.9-21.9-48.8-48.8-48.8H60.4c-8.1,0-14.8,6-16,13.8c-2.3,11.4-3.4,23.2-3.4,35c0,98.7,80.3,179,179,179
		c81.8,0,150.8-55.1,172.1-130.2H456c26.9,0,48.8-21.9,48.8-48.8c0-26.9-21.9-48.8-48.8-48.8h-64c-3.2-11.2-7.4-22.1-12.7-32.5H456
		c44.9,0,81.3,36.5,81.3,81.3s-36.5,81.3-81.3,81.3l-32.5-0.1c-9,0-16.3,7.3-16.3,16.3c0,0.1,0,0.3,0,0.4c0,0.2-0.1,0.5-0.1,0.7v64
		c0,9,7.3,16.3,16.3,16.3s16.3-7.3,16.3-16.3v-48.8l16.3,0c9.2,0,18.1-1.2,26.6-3.3l60.6,60.6c3.2,3.2,7.3,4.8,11.5,4.8
		s8.3-1.6,11.5-4.8C572.6,438.4,572.6,428.1,566.3,421.7z M236.2,273.5c0,9-7.3,16.3-16.3,16.3c-9,0-16.3-7.3-16.3-16.3
		c0-9,7.3-16.3,16.3-16.3C228.9,257.2,236.2,264.5,236.2,273.5z M456,257.2c9,0,16.3,7.3,16.3,16.3c0,9-7.3,16.3-16.3,16.3h-57.9
		c0.5-5.4,0.8-10.8,0.8-16.3c0-5.5-0.3-10.9-0.8-16.3H456z"/>
</g>
</svg>
